<svg width="40" height="40" viewBox="0 0 40 40" fill="none" xmlns="http://www.w3.org/2000/svg">
<path opacity="0.5" d="M17.629 35H25.0364C30.2381 35 32.839 35 34.7073 33.7962C35.5161 33.275 36.2105 32.6054 36.751 31.8254C37.9993 30.0238 37.9993 27.5158 37.9993 22.4998C37.9993 17.4838 37.9991 14.9762 36.7507 13.1745C36.2103 12.3946 35.5158 11.7249 34.707 11.2038C32.8387 10 30.2378 10 25.0361 10H17.6287C12.427 10 9.82614 10 7.95781 11.2038C7.149 11.7249 6.45455 12.3946 5.91411 13.1745C4.66602 14.9758 4.66602 17.4827 4.66602 22.4965L4.66602 22.4998C4.66602 27.5158 4.66602 30.0238 5.91439 31.8254C6.45482 32.6054 7.14927 33.275 7.95809 33.7962C9.82641 35 12.4273 35 17.629 35Z" fill="#1D6B50"/>
<path fill-rule="evenodd" clip-rule="evenodd" d="M14.666 6.66667C14.666 5.74619 15.3548 5 16.2045 5H26.4609C27.3106 5 27.9993 5.74619 27.9993 6.66667C27.9993 7.58714 27.3106 8.33333 26.4609 8.33333H16.2045C15.3548 8.33333 14.666 7.58714 14.666 6.66667Z" fill="#1D6B50"/>
<path fill-rule="evenodd" clip-rule="evenodd" d="M30.1294 17.1435C30.1294 16.4038 30.7512 15.8042 31.5183 15.8042H32.4442C33.2113 15.8042 33.8331 16.4038 33.8331 17.1435C33.8331 17.8832 33.2113 18.4828 32.4442 18.4828H31.5183C30.7512 18.4828 30.1294 17.8832 30.1294 17.1435Z" fill="white"/>
<path fill-rule="evenodd" clip-rule="evenodd" d="M14.3887 22.5007C14.3887 18.8023 17.4978 15.8042 21.3331 15.8042C25.1684 15.8042 28.2776 18.8023 28.2776 22.5007C28.2776 26.1991 25.1684 29.1973 21.3331 29.1973C17.4978 29.1973 14.3887 26.1991 14.3887 22.5007ZM17.1665 22.5007C17.1665 20.2817 19.0319 18.4828 21.3331 18.4828C23.6343 18.4828 25.4998 20.2817 25.4998 22.5007C25.4998 24.7198 23.6343 26.5187 21.3331 26.5187C19.0319 26.5187 17.1665 24.7198 17.1665 22.5007Z" fill="#1D6B50"/>
<path fill-rule="evenodd" clip-rule="evenodd" d="M31.5183 15.8042C30.7512 15.8042 30.1294 16.4038 30.1294 17.1435C30.1294 17.8832 30.7512 18.4828 31.5183 18.4828H32.4442C33.2113 18.4828 33.8331 17.8832 33.8331 17.1435C33.8331 16.4038 33.2113 15.8042 32.4442 15.8042H31.5183Z" fill="#1D6B50"/>
</svg>
