<svg xmlns="http://www.w3.org/2000/svg" width="33" height="33" viewBox="0 0 32 32" fill="none">
    <path
        d="M11.3413 14.2833C11.3413 13.056 12.3482 12.061 13.5903 12.061C14.8323 12.061 15.8392 13.056 15.8392 14.2833C15.8392 15.5106 14.8323 16.5055 13.5903 16.5055C12.3482 16.5055 11.3413 15.5106 11.3413 14.2833Z"
        fill="currentColor" />
    <path fill-rule="evenodd" clip-rule="evenodd"
        d="M2.66699 14.2832C2.66699 10.6915 2.66699 8.89565 3.7962 7.77986C4.92541 6.66406 6.74284 6.66406 10.3777 6.66406H16.8033C20.4382 6.66406 22.2556 6.66406 23.3848 7.77986C24.514 8.89565 24.514 10.6915 24.514 14.2832C24.514 17.8749 24.514 19.6707 23.3848 20.7865C22.2556 21.9023 20.4382 21.9023 16.8033 21.9023H10.3777C6.74284 21.9023 4.92541 21.9023 3.7962 20.7865C2.66699 19.6707 2.66699 17.8749 2.66699 14.2832ZM9.41362 14.2833C9.41362 12.004 11.2836 10.1562 13.5903 10.1562C15.8969 10.1562 17.7669 12.004 17.7669 14.2833C17.7669 16.5626 15.8969 18.4103 13.5903 18.4103C11.2836 18.4103 9.41362 16.5626 9.41362 14.2833ZM5.55827 16.823C5.55827 17.349 5.98979 17.7754 6.52211 17.7754C7.05442 17.7754 7.48595 17.349 7.48595 16.823V11.7436C7.48595 11.2176 7.05442 10.7912 6.52211 10.7912C5.98979 10.7912 5.55827 11.2176 5.55827 11.7436L5.55827 16.823ZM20.6584 17.7754C20.1261 17.7754 19.6946 17.349 19.6946 16.823V11.7436C19.6946 11.2176 20.1261 10.7912 20.6584 10.7912C21.1907 10.7912 21.6222 11.2176 21.6222 11.7436V16.823C21.6222 17.349 21.1907 17.7754 20.6584 17.7754Z"
        fill="currentColor" />
    <path opacity="0.5"
        d="M5.41992 21.6333C5.43731 21.8345 5.45819 22.0273 5.48327 22.2116C5.63879 23.3546 5.9715 24.317 6.74503 25.0814C6.85516 25.1902 6.96934 25.2902 7.08754 25.3821C7.84138 26.0674 8.77527 26.3713 9.87412 26.5173C10.9883 26.6653 12.4049 26.6653 14.1624 26.6653H20.729C22.4865 26.6653 23.9032 26.6653 25.0173 26.5173C26.1741 26.3636 27.148 26.0349 27.9216 25.2705C28.6951 24.5062 29.0278 23.5438 29.1833 22.4008C29.3331 21.2999 29.3331 19.9001 29.3331 18.1635V18.0241C29.3331 16.2875 29.3331 14.8877 29.1833 13.7868C29.0278 12.6438 28.6951 11.6814 27.9216 10.917C27.8114 10.8082 27.6972 10.7082 27.579 10.6163C26.8252 9.93102 25.8913 9.62704 24.7925 9.48106C24.6181 9.4579 24.4363 9.43836 24.2469 9.42188C24.5132 10.5331 24.5132 12.0666 24.5132 14.2855C24.5132 17.8772 24.5132 19.6731 23.384 20.7889C22.2548 21.9046 20.4374 21.9046 16.8025 21.9046H10.3769C8.10798 21.9046 6.5472 21.9046 5.41992 21.6333Z"
        fill="currentColor" />
</svg>
